HIERARCHY
ROOT Hips
{
	OFFSET 0.00 0.00 0.00
	CHANNELS 6 Xposition Yposition Zposition Xrotation Yrotation Zrotation
	JOINT Spine
	{
		OFFSET 0.00000 1.66264 2.49395
		CHANNELS 3 Xrotation Yrotation Zrotation
		JOINT Spine1
		{
			OFFSET 0.00000 0.57743 3.27475
			CHANNELS 3 Xrotation Yrotation Zrotation
			JOINT Spine2
			{
				OFFSET 0.00000 0.28982 3.31262
				CHANNELS 3 Xrotation Yrotation Zrotation
				JOINT Spine3
				{
					OFFSET 0.00000 0.00000 3.32527
					CHANNELS 3 Xrotation Yrotation Zrotation
					JOINT Neck
					{
						OFFSET 0.00000 -1.24697 8.72884
						CHANNELS 3 Xrotation Yrotation Zrotation
						JOINT Head
						{
							OFFSET 0.00000 -0.79396 4.50279
							CHANNELS 3 Xrotation Yrotation Zrotation
							End Site
							{
								OFFSET 0.00000 0.00001 5.38279
							}
						}
					}
					JOINT RightShoulder
					{
						OFFSET -1.14808 -1.91346 6.19963
						CHANNELS 3 Xrotation Yrotation Zrotation
						JOINT RightArm
						{
							OFFSET -5.70212 0.00000 0.00000
							CHANNELS 3 Xrotation Yrotation Zrotation
							JOINT RightForeArm
							{
								OFFSET -10.82477 0.00000 0.00000
								CHANNELS 3 Xrotation Yrotation Zrotation
								JOINT RightHand
								{
									OFFSET -10.02856 0.00000 0.00000
									CHANNELS 3 Xrotation Yrotation Zrotation
									JOINT RightHandEnd
									{
										OFFSET -2.68345 0.00000 0.00000
										CHANNELS 3 Xrotation Yrotation Zrotation
										End Site
										{
											OFFSET -2.68345 0.00000 0.00000
										}
									}
									JOINT RightHandThumb1
									{
										OFFSET -1.07338 -1.78897 -0.71559
										CHANNELS 3 Yrotation Xrotation Zrotation
										End Site
										{
											OFFSET -2.59202 -0.69453 0.00000
										}
									}
								}
							}
						}
					}
					JOINT LeftShoulder
					{
						OFFSET 1.14808 -1.91346 6.19963
						CHANNELS 3 Xrotation Yrotation Zrotation
						JOINT LeftArm
						{
							OFFSET 5.70212 0.00000 0.00000
							CHANNELS 3 Xrotation Yrotation Zrotation
							JOINT LeftForeArm
							{
								OFFSET 10.82477 0.00000 0.00000
								CHANNELS 3 Xrotation Yrotation Zrotation
								JOINT LeftHand
								{
									OFFSET 10.02856 0.00000 0.00000
									CHANNELS 3 Xrotation Yrotation Zrotation
									JOINT LeftHandEnd
									{
										OFFSET 2.68345 0.00000 0.00000
										CHANNELS 3 Xrotation Yrotation Zrotation
										End Site
										{
											OFFSET 2.68345 0.00000 0.00000
										}
									}
									JOINT LeftHandThumb1
									{
										OFFSET 1.07338 -1.78897 -0.71559
										CHANNELS 3 Yrotation Xrotation Zrotation
										End Site
										{
											OFFSET 2.59202 -0.69453 0.00000
										}
									}
								}
							}
						}
					}
				}
			}
		}
	}
	JOINT RightUpLeg
	{
		OFFSET -3.40597 0.00000 -0.99500
		CHANNELS 3 Xrotation Yrotation Zrotation
		JOINT RightLeg
		{
			OFFSET 0.00001 0.00000 -17.05191
			CHANNELS 3 Xrotation Yrotation Zrotation
			JOINT RightFoot
			{
				OFFSET 0.00001 0.00000 -15.93260
				CHANNELS 3 Xrotation Yrotation Zrotation
				JOINT RightToeBase
				{
					OFFSET 0.00000 -4.98016 -1.81263
					CHANNELS 3 Xrotation Yrotation Zrotation
					End Site
					{
						OFFSET 0.00000 -2.75539 -0.00000
					}
				}
			}
		}
	}
	JOINT LeftUpLeg
	{
		OFFSET 3.40597 0.00000 -0.99500
		CHANNELS 3 Xrotation Yrotation Zrotation
		JOINT LeftLeg
		{
			OFFSET 0.00001 0.00000 -17.05191
			CHANNELS 3 Xrotation Yrotation Zrotation
			JOINT LeftFoot
			{
				OFFSET 0.00001 0.00000 -15.93260
				CHANNELS 3 Xrotation Yrotation Zrotation
				JOINT LeftToeBase
				{
					OFFSET 0.00000 -4.98016 -1.81263
					CHANNELS 3 Xrotation Yrotation Zrotation
					End Site
					{
						OFFSET 0.00000 -2.75539 -0.00000
					}
				}
			}
		}
	}
}
MOTION
Frames: 18
Frame Time: 0.008342
 10.6463 -108.3858 35.1126 -3.3184 -0.4618 -179.2302 -2.9829 -0.0273 -0.1835 -1.5316 -0.3873 -0.0052 -1.2708 -0.6942 1.1372 0.3296 -0.1863 0.2034 6.1818 1.6160 3.7137 -2.1117 4.0725 3.7818 1.9740 20.1273 -2.7739 -25.9750 -17.8906 -11.4509 0.0000 0.0000 24.9495 -9.0017 23.8536 2.1869 -0.0000 0.0000 -0.0000 -0.0000 -0.0000 0.0000 5.1624 -12.5380 3.2646 -8.2816 16.8806 -8.0775 -0.0000 -0.0000 -14.7002 -9.1022 -26.4689 -0.3554 0.0000 -0.0000 -0.0000 0.0000 -0.0000 -0.0000 -3.6426 -1.6633 -36.8281 1.9261 0.0000 0.0000 -8.9905 -1.6956 -8.0691 4.0307 0.0000 0.0000 -0.9996 0.8286 29.5947 -1.2901 0.0000 -0.0000 -8.1358 4.7234 7.9753 5.4867 0.0000 0.0000
 10.6457 -108.3856 35.1126 -3.3170 -0.4627 -179.2238 -2.9824 -0.0297 -0.1835 -1.5313 -0.3887 -0.0041 -1.2699 -0.6945 1.1411 0.3311 -0.1855 0.2047 6.1903 1.6150 3.7141 -2.1178 4.0767 3.7793 1.9769 20.1357 -2.7769 -25.9731 -17.9007 -11.4592 0.0000 0.0000 24.9568 -9.0031 23.8638 2.1871 0.0000 0.0000 0.0000 -0.0000 0.0000 -0.0000 5.1554 -12.5269 3.2650 -8.2993 16.8812 -8.0777 -0.0000 -0.0000 -14.6945 -9.1161 -26.4796 -0.3601 -0.0000 -0.0000 0.0000 0.0000 0.0000 -0.0000 -3.6420 -1.6618 -36.8288 1.9303 0.0000 0.0000 -8.9949 -1.7021 -8.0764 4.0354 0.0000 0.0000 -0.9989 0.8282 29.5855 -1.2890 0.0000 -0.0000 -8.1368 4.7192 7.9784 5.4896 0.0000 0.0000
 10.6451 -108.3853 35.1127 -3.3151 -0.4641 -179.2147 -2.9822 -0.0319 -0.1835 -1.5307 -0.3906 -0.0035 -1.2680 -0.6970 1.1468 0.3327 -0.1853 0.2068 6.2010 1.6159 3.7154 -2.1241 4.0814 3.7766 1.9831 20.1553 -2.7827 -25.9755 -17.9209 -11.4763 0.0000 0.0000 24.9688 -9.0011 23.8711 2.1864 0.0000 0.0000 0.0000 -0.0000 -0.0000 -0.0000 5.1473 -12.5132 3.2640 -8.3199 16.8857 -8.0784 -0.0000 -0.0000 -14.6873 -9.1395 -26.4895 -0.3664 0.0000 -0.0000 -0.0000 0.0000 0.0000 -0.0000 -3.6412 -1.6598 -36.8300 1.9361 0.0000 0.0000 -9.0009 -1.7109 -8.0859 4.0415 0.0000 0.0000 -0.9978 0.8276 29.5741 -1.2879 0.0000 -0.0000 -8.1372 4.7158 7.9809 5.4927 0.0000 0.0000
 10.6443 -108.3849 35.1128 -3.3126 -0.4660 -179.2023 -2.9813 -0.0346 -0.1835 -1.5300 -0.3923 -0.0034 -1.2662 -0.7011 1.1542 0.3347 -0.1857 0.2092 6.2145 1.6172 3.7179 -2.1304 4.0867 3.7747 1.9932 20.1838 -2.7917 -25.9800 -17.9496 -11.4991 0.0000 0.0000 24.9838 -8.9985 23.8759 2.1858 0.0000 0.0000 -0.0000 -0.0000 0.0000 -0.0000 5.1385 -12.4982 3.2623 -8.3405 16.8950 -8.0809 -0.0000 -0.0000 -14.6780 -9.1757 -26.4982 -0.3760 -0.0000 -0.0000 0.0000 -0.0000 0.0000 0.0000 -3.6398 -1.6575 -36.8317 1.9433 0.0000 0.0000 -9.0084 -1.7218 -8.0981 4.0498 0.0000 0.0000 -0.9963 0.8266 29.5619 -1.2863 0.0000 -0.0000 -8.1373 4.7137 7.9814 5.4955 0.0000 0.0000
 10.6433 -108.3843 35.1129 -3.3092 -0.4683 -179.1868 -2.9796 -0.0378 -0.1832 -1.5292 -0.3940 -0.0039 -1.2644 -0.7064 1.1623 0.3372 -0.1863 0.2118 6.2305 1.6179 3.7211 -2.1363 4.0923 3.7744 2.0051 20.2182 -2.8036 -25.9820 -17.9840 -11.5239 0.0000 0.0000 24.9995 -8.9953 23.8786 2.1847 -0.0000 0.0000 -0.0000 0.0000 -0.0000 -0.0000 5.1317 -12.4841 3.2608 -8.3607 16.9108 -8.0863 -0.0000 -0.0000 -14.6667 -9.2198 -26.5038 -0.3868 0.0000 -0.0000 -0.0000 0.0000 -0.0000 -0.0000 -3.6373 -1.6550 -36.8343 1.9512 0.0000 0.0000 -9.0168 -1.7347 -8.1125 4.0594 0.0000 0.0000 -0.9942 0.8252 29.5501 -1.2837 0.0000 -0.0000 -8.1369 4.7132 7.9786 5.4980 0.0000 0.0000
 10.6422 -108.3836 35.1130 -3.3057 -0.4711 -179.1683 -2.9782 -0.0415 -0.1829 -1.5283 -0.3961 -0.0037 -1.2621 -0.7117 1.1698 0.3400 -0.1865 0.2149 6.2485 1.6156 3.7244 -2.1409 4.0989 3.7768 2.0176 20.2533 -2.8171 -25.9795 -18.0187 -11.5487 0.0000 0.0000 25.0155 -8.9925 23.8761 2.1834 -0.0000 0.0000 -0.0000 0.0000 -0.0000 0.0000 5.1281 -12.4750 3.2611 -8.3774 16.9362 -8.0968 -0.0000 -0.0000 -14.6526 -9.2702 -26.5063 -0.3997 0.0000 0.0000 0.0000 0.0000 0.0000 0.0000 -3.6346 -1.6523 -36.8370 1.9603 0.0000 0.0000 -9.0265 -1.7490 -8.1298 4.0710 0.0000 0.0000 -0.9923 0.8234 29.5387 -1.2803 0.0000 -0.0000 -8.1362 4.7144 7.9726 5.5001 0.0000 0.0000
 10.6412 -108.3821 35.1132 -3.2927 -0.4759 -179.1449 -2.9684 -0.0480 -0.1836 -1.5272 -0.3948 -0.0063 -1.2596 -0.7206 1.1788 0.3428 -0.1878 0.2188 6.2692 1.6147 3.7285 -2.1456 4.1038 3.7803 2.0364 20.2983 -2.8380 -25.9818 -18.0632 -11.5739 0.0000 0.0000 25.0301 -8.9868 23.8705 2.1826 -0.0000 0.0000 -0.0000 -0.0000 0.0000 0.0000 5.1254 -12.4655 3.2599 -8.3797 16.9630 -8.1142 -0.0000 -0.0000 -14.6346 -9.3279 -26.5004 -0.4139 -0.0000 -0.0000 -0.0000 -0.0000 -0.0000 -0.0000 -3.6191 -1.6526 -36.8451 1.9657 0.0000 0.0000 -9.0352 -1.7671 -8.1463 4.0837 0.0000 0.0000 -0.9796 0.8195 29.5276 -1.2774 0.0000 -0.0000 -8.1356 4.7175 7.9622 5.5017 0.0000 0.0000
 10.6399 -108.3811 35.1133 -3.2909 -0.4783 -179.1211 -2.9696 -0.0518 -0.1826 -1.5258 -0.3989 -0.0044 -1.2568 -0.7230 1.1820 0.3456 -0.1860 0.2212 6.2915 1.6041 3.7320 -2.1473 4.1111 3.7892 2.0438 20.3245 -2.8477 -25.9623 -18.0873 -11.5930 0.0000 0.0000 25.0423 -8.9885 23.8619 2.1824 0.0000 -0.0000 0.0000 -0.0000 -0.0000 0.0000 5.1306 -12.4685 3.2634 -8.3803 17.0033 -8.1346 -0.0000 -0.0000 -14.6160 -9.3776 -26.4925 -0.4257 -0.0000 -0.0000 0.0000 -0.0000 -0.0000 0.0000 -3.6184 -1.6483 -36.8463 1.9769 0.0000 0.0000 -9.0469 -1.7814 -8.1698 4.0975 0.0000 0.0000 -0.9802 0.8182 29.5189 -1.2729 0.0000 -0.0000 -8.1336 4.7219 7.9495 5.5026 0.0000 0.0000
 10.6386 -108.3801 35.1134 -3.2886 -0.4810 -179.0937 -2.9694 -0.0560 -0.1827 -1.5253 -0.4020 -0.0039 -1.2549 -0.7258 1.1857 0.3490 -0.1861 0.2230 6.3143 1.5957 3.7362 -2.1467 4.1152 3.7982 2.0558 20.3572 -2.8631 -25.9528 -18.1175 -11.6141 0.0000 0.0000 25.0557 -8.9851 23.8476 2.1805 -0.0000 0.0000 -0.0000 0.0000 -0.0000 0.0000 5.1383 -12.4709 3.2683 -8.3616 17.0427 -8.1663 -0.0000 -0.0000 -14.5922 -9.4276 -26.4758 -0.4378 -0.0000 0.0000 -0.0000 0.0000 0.0000 0.0000 -3.6167 -1.6444 -36.8503 1.9880 0.0000 0.0000 -9.0587 -1.7952 -8.1938 4.1115 0.0000 0.0000 -0.9815 0.8160 29.5091 -1.2659 0.0000 -0.0000 -8.1326 4.7270 7.9348 5.5028 0.0000 0.0000
 10.6374 -108.3788 35.1135 -3.2865 -0.4839 -179.0639 -2.9696 -0.0607 -0.1823 -1.5255 -0.4045 -0.0043 -1.2525 -0.7281 1.1875 0.3526 -0.1862 0.2240 6.3379 1.5859 3.7397 -2.1438 4.1177 3.8084 2.0663 20.3844 -2.8789 -25.9404 -18.1417 -11.6294 0.0000 0.0000 25.0660 -8.9839 23.8322 2.1823 0.0000 -0.0000 -0.0000 0.0000 -0.0000 0.0000 5.1478 -12.4741 3.2731 -8.3247 17.0793 -8.2051 -0.0000 -0.0000 -14.5650 -9.4686 -26.4511 -0.4473 0.0000 0.0000 -0.0000 0.0000 -0.0000 0.0000 -3.6139 -1.6412 -36.8561 1.9969 0.0000 0.0000 -9.0696 -1.8081 -8.2182 4.1255 0.0000 0.0000 -0.9831 0.8137 29.5006 -1.2586 0.0000 -0.0000 -8.1318 4.7326 7.9170 5.5025 0.0000 0.0000
 10.6362 -108.3774 35.1136 -3.2842 -0.4870 -179.0315 -2.9695 -0.0658 -0.1824 -1.5264 -0.4064 -0.0051 -1.2501 -0.7296 1.1864 0.3565 -0.1860 0.2244 6.3616 1.5754 3.7426 -2.1396 4.1185 3.8189 2.0756 20.4057 -2.8953 -25.9278 -18.1602 -11.6381 0.0000 0.0000 25.0731 -8.9842 23.8172 2.1864 -0.0000 -0.0000 -0.0000 -0.0000 -0.0000 -0.0000 5.1615 -12.4789 3.2812 -8.2708 17.1131 -8.2535 -0.0000 -0.0000 -14.5343 -9.5003 -26.4179 -0.4535 0.0000 0.0000 0.0000 -0.0000 0.0000 0.0000 -3.6095 -1.6389 -36.8642 2.0034 0.0000 0.0000 -9.0793 -1.8194 -8.2425 4.1385 0.0000 0.0000 -0.9849 0.8108 29.4933 -1.2504 0.0000 -0.0000 -8.1317 4.7382 7.8959 5.5018 0.0000 0.0000
 10.6351 -108.3760 35.1137 -3.2826 -0.4893 -178.9992 -2.9710 -0.0709 -0.1814 -1.5271 -0.4082 -0.0059 -1.2470 -0.7295 1.1836 0.3596 -0.1849 0.2239 6.3858 1.5635 3.7433 -2.1340 4.1181 3.8283 2.0793 20.4169 -2.9075 -25.9115 -18.1668 -11.6442 0.0000 0.0000 25.0817 -8.9829 23.8009 2.1868 0.0000 -0.0000 -0.0000 -0.0000 0.0000 -0.0000 5.1745 -12.4862 3.2852 -8.2022 17.1440 -8.3008 -0.0000 -0.0000 -14.5039 -9.5152 -26.3799 -0.4560 0.0000 0.0000 0.0000 0.0000 0.0000 0.0000 -3.6057 -1.6361 -36.8711 2.0096 0.0000 0.0000 -9.0888 -1.8278 -8.2677 4.1496 0.0000 0.0000 -0.9869 0.8090 29.4874 -1.2435 0.0000 -0.0000 -8.1311 4.7440 7.8739 5.5008 0.0000 0.0000
 10.6340 -108.3744 35.1137 -3.2812 -0.4911 -178.9655 -2.9723 -0.0761 -0.1815 -1.5283 -0.4095 -0.0067 -1.2441 -0.7279 1.1785 0.3629 -0.1838 0.2224 6.4089 1.5519 3.7424 -2.1271 4.1163 3.8361 2.0809 20.4209 -2.9193 -25.8971 -18.1665 -11.6449 0.0000 0.0000 25.0893 -8.9849 23.7861 2.1909 0.0000 -0.0000 0.0000 -0.0000 0.0000 -0.0000 5.1898 -12.4944 3.2925 -8.1204 17.1708 -8.3563 -0.0000 -0.0000 -14.4695 -9.5166 -26.3382 -0.4558 0.0000 -0.0000 -0.0000 -0.0000 -0.0000 -0.0000 -3.6010 -1.6335 -36.8805 2.0139 0.0000 0.0000 -9.0972 -1.8334 -8.2917 4.1585 0.0000 0.0000 -0.9894 0.8074 29.4808 -1.2358 0.0000 -0.0000 -8.1315 4.7494 7.8512 5.4991 0.0000 0.0000
 10.6331 -108.3728 35.1137 -3.2803 -0.4923 -178.9317 -2.9744 -0.0811 -0.1817 -1.5300 -0.4107 -0.0078 -1.2407 -0.7254 1.1712 0.3659 -0.1819 0.2202 6.4312 1.5414 3.7397 -2.1196 4.1132 3.8406 2.0794 20.4174 -2.9288 -25.8834 -18.1587 -11.6415 0.0000 0.0000 25.0972 -8.9869 23.7743 2.1970 0.0000 -0.0000 0.0000 0.0000 0.0000 0.0000 5.2050 -12.5005 3.2995 -8.0307 17.1903 -8.4118 -0.0000 -0.0000 -14.4357 -9.5045 -26.2938 -0.4520 -0.0000 -0.0000 -0.0000 -0.0000 0.0000 0.0000 -3.5959 -1.6311 -36.8908 2.0160 0.0000 0.0000 -9.1044 -1.8359 -8.3144 4.1643 0.0000 0.0000 -0.9920 0.8065 29.4761 -1.2291 0.0000 -0.0000 -8.1318 4.7547 7.8266 5.4970 0.0000 0.0000
 10.6321 -108.3712 35.1137 -3.2799 -0.4929 -178.8986 -2.9768 -0.0856 -0.1816 -1.5322 -0.4117 -0.0086 -1.2375 -0.7221 1.1623 0.3690 -0.1798 0.2172 6.4524 1.5328 3.7347 -2.1118 4.1092 3.8409 2.0755 20.4073 -2.9370 -25.8714 -18.1444 -11.6352 0.0000 0.0000 25.1079 -8.9902 23.7652 2.2038 0.0000 -0.0000 -0.0000 -0.0000 -0.0000 -0.0000 5.2194 -12.5046 3.3066 -7.9366 17.2036 -8.4675 -0.0000 -0.0000 -14.4011 -9.4816 -26.2492 -0.4464 -0.0000 0.0000 -0.0000 -0.0000 -0.0000 0.0000 -3.5905 -1.6288 -36.9024 2.0159 0.0000 0.0000 -9.1101 -1.8352 -8.3349 4.1667 0.0000 0.0000 -0.9944 0.8064 29.4723 -1.2234 0.0000 -0.0000 -8.1320 4.7599 7.8018 5.4939 0.0000 0.0000
 10.6313 -108.3695 35.1137 -3.2799 -0.4930 -178.8670 -2.9795 -0.0897 -0.1811 -1.5347 -0.4126 -0.0093 -1.2343 -0.7187 1.1525 0.3721 -0.1775 0.2135 6.4720 1.5274 3.7275 -2.1041 4.1043 3.8364 2.0696 20.3931 -2.9439 -25.8610 -18.1260 -11.6276 0.0000 0.0000 25.1223 -8.9924 23.7592 2.2120 -0.0000 0.0000 -0.0000 0.0000 -0.0000 0.0000 5.2312 -12.5056 3.3121 -7.8431 17.2111 -8.5191 -0.0000 -0.0000 -14.3677 -9.4500 -26.2068 -0.4404 -0.0000 -0.0000 0.0000 -0.0000 0.0000 0.0000 -3.5852 -1.6266 -36.9136 2.0147 0.0000 0.0000 -9.1148 -1.8317 -8.3541 4.1649 0.0000 0.0000 -0.9966 0.8071 29.4694 -1.2191 0.0000 -0.0000 -8.1318 4.7651 7.7772 5.4891 0.0000 0.0000
 10.6305 -108.3678 35.1136 -3.2803 -0.4923 -178.8365 -2.9825 -0.0934 -0.1815 -1.5373 -0.4135 -0.0099 -1.2308 -0.7150 1.1421 0.3748 -0.1747 0.2098 6.4904 1.5244 3.7181 -2.0972 4.0992 3.8269 2.0630 20.3756 -2.9497 -25.8520 -18.1052 -11.6188 0.0000 0.0000 25.1402 -8.9943 23.7566 2.2215 0.0000 0.0000 0.0000 0.0000 -0.0000 0.0000 5.2420 -12.5039 3.3180 -7.7576 17.2148 -8.5656 -0.0000 -0.0000 -14.3365 -9.4131 -26.1685 -0.4329 0.0000 0.0000 -0.0000 0.0000 -0.0000 -0.0000 -3.5799 -1.6242 -36.9251 2.0123 0.0000 0.0000 -9.1185 -1.8255 -8.3713 4.1599 0.0000 0.0000 -0.9984 0.8086 29.4672 -1.2160 0.0000 -0.0000 -8.1307 4.7706 7.7526 5.4826 0.0000 0.0000
 10.6297 -108.3660 35.1135 -3.2811 -0.4911 -178.8080 -2.9856 -0.0966 -0.1821 -1.5401 -0.4145 -0.0104 -1.2272 -0.7115 1.1318 0.3775 -0.1717 0.2061 6.5070 1.5247 3.7071 -2.0905 4.0941 3.8123 2.0562 20.3574 -2.9551 -25.8439 -18.0845 -11.6103 0.0000 0.0000 25.1628 -8.9943 23.7574 2.2318 -0.0000 0.0000 -0.0000 -0.0000 -0.0000 -0.0000 5.2503 -12.4992 3.3230 -7.6835 17.2159 -8.6041 -0.0000 -0.0000 -14.3085 -9.3761 -26.1350 -0.4273 0.0000 0.0000 -0.0000 0.0000 0.0000 0.0000 -3.5748 -1.6214 -36.9360 2.0097 0.0000 0.0000 -9.1216 -1.8173 -8.3871 4.1507 0.0000 0.0000 -0.9996 0.8110 29.4661 -1.2143 0.0000 -0.0000 -8.1287 4.7764 7.7287 5.4745 0.0000 0.0000
